<!-- <?xml version="1.0" encoding="UTF-8"?>
<svg version="1.1" viewBox="0 0 1064 1076" width="1280" height="1280" xmlns="http://www.w3.org/2000/svg">
<path transform="translate(25,558)" d="m0 0h7l4 57 5 32 7 31 8 27 9 25 13 30 14 27 14 23 8 12 12 17 11 14 12 14 11 12 2 4h2l7 8 7 7 8 7 11 10 11 9 14 11 17 12 22 14 21 12 24 12 19 8 24 9 21 7 31 8 26 5 22 3 35 3h42l37-3 30-5 25-6 28-8 29-10 30-13 24-12 25-15 22-15 19-14 15-13 14-12 8-8 8-7 9-10 12-13 9-11 11-14 12-17 11-17 15-26 8-15 12-27 11-29 9-31 7-30 5-31 2-20 2-37 1-1h7v15l-1 24-5 40-5 25-7 28-12 36-10 25-16 33-14 24-11 17-13 19-13 16-7 8-18 20-6 7-8 7-12 12-8 7-13 11-13 10-14 10-17 11-22 13-27 14-28 12-28 10-29 9-30 7-33 5-34 3-16 1h-22l-42-3-28-4-29-6-30-8-24-8-27-11-29-14-17-9-21-13-19-13-19-14-14-12-8-7-12-11-22-22-7-8-12-14-10-13-13-18-11-17-12-20-15-29-13-30-10-28-8-27-8-37-4-27-2-25-1-30z" fill="#232728"/>
<path transform="translate(504,283)" d="m0 0h27l18 4 16 7 13 9 9 10 8 15 3 11 1 7v18l-3 16-6 16-9 17-8 12-10 13-12 13-9 9-14 11-14 9-14 8-16 7-30 10-21 5-29 4-6 11-15 28-12 19-12 18-11 14-12 13-11 9-10 5-15 3h-11l-1-4 17-5 11-7 10-9 10-10 11-14 10-14 12-19 12-21 10-18 1-2-9-3-8-7-2-4 1-5 3-3 4 1 5 9 7 5h3l18-35 10-19 12-23 14-24 11-17 12-17 9-11 11-13 1-3-6 4-10 9-8 7-22 22h-2v2l-8 7-17 17-8 7-11 10-16 11-17 9-12 4-13 1-7-2-6-7-2-4-1-7 2-14 5-12 6-10 12-17 11-14 12-13 16-16 17-13 18-12 22-12 19-8 17-5zm-4 6-20 4-20 7-21 10-21 13-12 9-11 9-8 8-6 5-7 8-9 10-14 20-10 19-4 14v12l4 8 3 2h9l13-4 16-9 16-13 10-9 58-58 11-9 18-13 14-7 8-2 13-1 3 1v2l-8 3-8 6-12 11-9 10-11 13-12 17-15 23-13 23-15 29-14 29-9 17v2l22-3 17-4 18-6 18-8 20-12 12-9 14-12 15-15 11-14 10-15 9-17 7-21 2-11v-18l-3-14-8-16-6-7-12-9-14-6-9-2z" fill="#171919"/>
<path transform="translate(653,458)" d="m0 0h22l11 2 16 6 12 8 10 9 9 14 5 16 1 6v32l-4 20-6 20-11 28-11 22-12 19-10 14-8 10-10 11-7 8-16 16-11 9-13 11-18 13-7 5 10-1 18-5 16-7 11-6 12-8 14-11 10-10h2l1-3 8-7 7-6 3 3-8 10h-2l-2 4-16 17-9 8-15 10-20 9-22 7-25 5-13 2-23 11-21 8-22 6-16 3h-18l-10-5-3-4v-7l8-9 14-7 14-3 12-1h19l20 1h18l11-6 20-14 18-14 10-9 8-7 5-5h2l2-4 13-13 9-11 12-15 10-15 10-17 11-23 9-23 6-21 4-24v-24l-3-15-7-14-7-8-10-7-11-5-10-2h-20l-15 3-15 5-21 11-14 10-11 9-12 11-11 12-10 14-8 13-8 16-7 19-4 17-1 8v29l3 18 5 15 7 14 10 13 4 3v2l4 2 9 6 14 5 7 2 1 2h-8l-12-3-13-7-11-9-9-10-8-13-6-15-4-17-2-17v-16l2-18 5-19 7-17 9-17 9-14 13-17 14-15 14-12 15-10 23-12 18-6zm-143 307-16 2-12 4-8 6-5 6-1 3 6 5h15l15-3 20-6 24-10 7-4v-1l-5-1-21-1z" fill="#191B1B"/>
<path transform="translate(25,558)" d="m0 0h7l4 57 5 32 7 31 8 27 9 25 13 30 14 27 14 23 8 12 12 17 11 14 12 14 11 12 2 4h2l7 8 7 7 8 7 11 10 11 9 14 11 17 12 22 14 21 12 24 12 19 8 24 9 21 7 31 8 26 5 22 3 35 3 52 1v1l-13 1h-46v1l-7 1 11 1v1h-21l-26-3-34-6-38-10-24-8-27-11-29-14-17-9-21-13-19-13-19-14-14-12-8-7-12-11-22-22-7-8-12-14-10-13-13-18-11-17-12-20-15-29-13-30-10-28-8-27-8-37-4-27-2-25-1-30z" fill="#1A1B1B"/>
<path transform="translate(504,283)" d="m0 0h27l18 4 16 7 13 9 9 10 8 15 3 11 1 7v18l-3 16-6 16-8 15-3 1-5 6-6 8-4 5-2 3h-2v2h-2v2l-7 1-2 1 1-4 3-1 1-6 6-9 9-14 6-12 5-13 3-13 1-6v-22l-2-10-5-12-9-11-8-7-15-8-14-4-6-1v2l-25 1-20 4-20 7-21 10-21 13-12 9-11 9-12 12h-2l-2 4-8 8-10 13-10 15-9 17-4 14v12l3 7 3 2h9l13-4 16-9 16-13 10-9 58-58 2 1-55 55 7-6 56-56 8-6 2 3-17 17h-2l-2 4-3 5-14 14h-2v2l-8 7-17 17-8 7-11 10-16 11-17 9-12 4-13 1-7-2-6-7-2-4-1-7 2-14 5-12 6-10 12-17 11-14 12-13 16-16 17-13 18-12 22-12 19-8 17-5z" fill="#242829"/>
<path transform="translate(653,458)" d="m0 0h22l11 2 16 6 12 8 10 9 9 14 5 16 1 6v32l-4 20-6 20-8 21h-3l-4 10-2 2-2 6-3 3h-2l-2 5-6 11-6 9-3 2-3-3 4-6 4-4 1-4 5-8 1-4h2l1-7 9-17 6-16 6-19 3-13 2-13 1-13v-15l-2-14-3-8-7-11-4-4v-2l-4-2-5-2-16-8-10-2h-20l-15 3-15 5-21 11-14 10-11 9-12 11-11 12-10 14-8 13-8 16-7 19-4 17-1 8v29l3 18 5 15 7 14 10 13 4 3v2l4 2 9 6 14 5 7 2 1 2h-8l-12-3-13-7-11-9-9-10-8-13-6-15-4-17-2-17v-16l2-18 5-19 7-17 9-17 9-14 13-17 14-15 14-12 15-10 23-12 18-6z" fill="#242728"/>
<path transform="translate(238,947)" d="m0 0 9 5 19 12 18 10 22 11 19 8 24 9 21 7 31 8 26 5 22 3 35 3 52 1v1l-13 1h-46v1l-7 1 11 1v1h-21l-26-3-34-6-38-10-24-8-27-11-29-14-6-3-2-4-16-9-11-7-9-6 2-2-4-4z" fill="#202424"/>
<path transform="translate(653,458)" d="m0 0h22l11 2 16 6 12 8 10 9 9 14 5 16 1 6v32l-4 20-6 20-8 21h-3l-4 10-2 2-2 6-3 3h-2l-2 5-6 11-6 9-3 2-3-3 4-6 4-4 1-4 5-8 1-4h2l1-7 9-17 6-16 6-19 3-13 2-13 1-13v-15l-2-14-3-8-7-11-4-4v-2l-4-2-5-2-16-8-10-2-15-1v-2h-22v-2z" fill="#232829"/>
<path transform="translate(28,564)" d="m0 0 2 2 2 23 2 1 3 32 5 30 7 30 9 29 6 16v2h-2l10 24 9 19 13 23 11 18 8 12 14 19 11 14 13 15 14 15 10 10-3 2-4-5-6-5-8-10-5-5-13-14-6-8v-2h-2l-14-19-15-22-8-13-13-23-11-23-8-20-10-28-9-32-4-17-3-16-4-31-2-37z" fill="#222728"/>
<path transform="translate(269,103)" d="m0 0h7l11 4 8 9 4 11-1 10-3 6-6 7-10 5h-15l-8-4-6-7-4-8v-13l5-10 7-6 6-3zm-2 9-8 5-4 8 1 8 4 7 5 5 4 2h8l6-3 5-6 1-7-3-10-5-6-6-3z" fill="#181919"/>
<path transform="translate(654,71)" d="m0 0h11l11 4 5 4 5 8 1 3v13l-5 10-7 7-8 3h-10l-10-3-7-6-5-10v-13l3-8 7-8 5-3zm4 8-6 3-5 6-2 5-1 7 2 7 5 5 7 3 8-1 6-4 4-7 1-4v-8l-3-6-5-4-6-2z" fill="#24292A"/>
<path transform="translate(497,45)" d="m0 0h17l8 4 7 8 3 9v8l-3 10-6 7-8 4-3 1h-13l-8-3-7-7-4-9v-14l5-10 7-6zm3 8-6 4-3 4-1 4v11l4 8 8 4h8l7-4 4-7v-14l-3-5-4-4-3-1z" fill="#171819"/>
<path transform="translate(775,135)" d="m0 0h15l10 5 7 8 3 7v10l-4 10-4 5-10 6-4 1-13-1-8-5-7-8-3-9v-7l4-10 7-8zm6 8-9 6-5 9-1 6 3 8 3 1v2l6 3h9l8-5 4-6 1-3v-11l-4-6-8-4z" fill="#232728"/>
<path transform="translate(333,76)" d="m0 0 8 2 5 6 1 8-3 7-1 4 16 11 3 4-4 2h-8l-9-6-7-5-6-1 6 18-1 3-5 2-4-1-12-31-5-14 6-4 12-4zm-7 8-6 3 1 8 3 7h6l6-4 2-3-1-8-5-3z" fill="#161717"/>
<path transform="translate(638,461)" d="m0 0h30l-4 1v2l-20 4-15 5-21 11-14 10-11 9-12 11-11 12-8 11-2-2v-2l-1-1-5 7-3 1 2-5 14-19 15-16 14-12 15-10 23-12z" fill="#181919"/>
<path transform="translate(215,138)" d="m0 0 7 1 7 6 3 6v7l-4 8-4 2v2l-6 4 2 4 6 8-1 5-3 3-4-1-10-12-10-14-8-11 1-4 13-10 6-3zm-4 9-9 6 2 5 7 9h5l5-4 2-4-1-6-3-5-2-1z" fill="#242829"/>
<path transform="translate(484,341)" d="m0 0 2 3-17 17h-2l-2 4-3 5-14 14h-2v2l-8 7-17 17-8 7-11 10-16 11-17 9h-3l-1-4 17-10 16-13 10-9 58-58 2 1-55 55 7-6 56-56z" fill="#212627"/>
<path transform="translate(602,1018)" d="m0 0 2 1-3 4v4l-30 5-28 3-30 2h-22l-17-1-4-2-1-2 7-1v-1h47l3-2 37-3 30-5z" fill="#272B2C"/>
<path transform="translate(454,47)" d="m0 0 4 1v5l-2 2-20 2 2 15 13-2h5l2 6-4 2-15 1 2 13v8l-2 1h-7l-2-7-5-39v-4l13-2z" fill="#191A1A"/>
<path transform="translate(396,56)" d="m0 0h7v6l-9 3-5 1 9 36v6l-4 2h-5l-6-22-3-14v-5l-10 2h-7l-1-6 13-4z" fill="#1A1B1B"/>
<path transform="translate(557,48)" d="m0 0 10 1-1 14-4 29 19 2v7l-1 1-14-1-14-2-2-4 6-44z" fill="#18191A"/>
<path transform="translate(520,609)" d="m0 0h1l1 33 3 18 5 15 7 14 10 13 4 3v2l4 2 9 6 14 5 7 2 1 2h-8l-12-3-13-7-11-9-9-10-8-13-6-15-3-11v-7l1 2h2v-41z" fill="#1D1E1E"/>
<path transform="translate(352,385)" d="m0 0h3l-1 4-9 16-5 12-2 8v12l3 7 3 2h9l12-3 1 5-9 3-13 1-7-2-6-7-2-4-1-7 2-14 5-12 9-15 5-3z" fill="#272B2C"/>
<path transform="translate(238,947)" d="m0 0 9 5 19 12 18 10 22 11v2l-1 1 9 4-2 1v2l3 1-4 1-29-14-6-3-2-4-16-9-11-7-9-6 2-2-4-4z" fill="#202324"/>
<path transform="translate(746,108)" d="m0 0 5 1 4 2-1 5-12 21-10 17-3 2-7-4 1-4 13-24 8-14z" fill="#222627"/>
<path transform="translate(610,57)" d="m0 0 9 1 1 4-10 44-4 2-6-2v-7l9-41z" fill="#161717"/>
<path transform="translate(250,122)" d="m0 0v3l1 5 1 3 2-1 3 7 5 5v2l8 1 12-2v2l1-2h2v-2l3-3 2-4 1-11 5 4 1 5-1 8-7 8-10 5h-15l-8-4-6-7-4-8v-9h2l1-4z" fill="#242829"/>
<path transform="translate(937,758)" d="m0 0 1 4-11 22-14 24-11 17-13 19-13 16-7 8-18 20-6 7-8 7-12 12-7 5 2-4 30-30 7-8 9-10 16-20 8-11 12-17 12-20 13-23 9-17z" fill="#1F2020"/>
<path transform="translate(441,425)" d="m0 0 2 1-2 6h-2l-2 6-9 19-9 17-2 6-6 9h-2v6l-6 11-6 8-5 12-5 8-6 12-3 4-6 11-4 7h-2l-2 5-2 1 2-6 1-4h2l1-5 3-1 1-5 8-14 9-16 3-6 2-2 2-7 2-3 1-7 3-6 3-1 4-8 2-1 1-3h2l-1-3 3-1 1-4 3-7 4-8h2l2-6 8-15z" fill="#25292A"/>
<path transform="translate(525,287)" d="m0 0 10 1 12 4 13 7 10 9 8 10 6 15 1 7v22l-3 15-4 12-7 16-7 10-4 6-5 3 2-5 9-14 8-17 5-16 2-11v-18l-3-14-8-16-5-6-12-9-14-6-14-3z" fill="#1C1D1E"/>
<path transform="translate(487,68)" d="m0 0h3l2 11 2 5 5 2 10 2v2l5 1 2-4 5-4 3-8 4 2 1 7-6 7-8 4-3 1h-13l-8-3-7-7-2-5v-9l2-2 1 1z" fill="#262B2C"/>
<path transform="translate(705,474)" d="m0 0 5 2 5 5 7 8 6 11 2 9 1 9v15l-2 18-3 16-6 21-5 14-11 22-3 1 3-9 7-15 8-22 6-25 2-14v-24l-3-15-7-14-7-8z" fill="#171819"/>
<path transform="translate(654,71)" d="m0 0h11l11 4 5 4 5 8 1 3v13l-5 10-7 7v-3l3-4-1-5 1-5h-2v-12l-1-7-5-4-7-3-5-1 3-2h-8l-3-2z" fill="#25292A"/>
<path transform="translate(549,288)" d="m0 0 5 1 16 8 10 8 7 8 8 15 3 11 1 7v18l-3 16-6 16-5 10-2-1 1-5 6-15 3-10 2-17-1-19-3-10-7-14-9-10-8-6-16-9z" fill="#171819"/>
<path transform="translate(648,73)" d="m0 0h14l-1 2 12 6 3 3v2l-4-2-5-3-9-1-6 3-4 5-4 8-2 3-1 4-2 1-2 4-2-4v-13l3-8 7-8z" fill="#151616"/>
<path transform="translate(215,142)" d="m0 0 5 2 4 6 2 1 2 11-2 6h-2v2l-6 4 2 4 6 8-1 5-2-2-3-6-6-7-8-7-6-10-1-5 4-4 1 7 7 9h5l5-5 1-6-3-5v-2h-10l2-4z" fill="#161818"/>
<path transform="translate(732,500)" d="m0 0h2l4 13 1 6v32l-4 20-6 20-5 13-3 2 2-10 7-21 4-19 1-9v-33z" fill="#1A1C1C"/>
<path transform="translate(769,138)" d="m0 0h13l-1 2h8l9 6 4 6 1 3v7l-3 7-5 7-5 2-1-2 6-4 4-8v-11l-3-5-8-4h-7l-9 6-2 2-1-2 2-4-2 1-1 3h-4l-3 5-3 1 1-5 5-8z" fill="#202121"/>
<path transform="translate(25,558)" d="m0 0h7l1 16v25h-1l-3-33-1 6 2 35 2 15v10l-2-1-3-17-2-25-1-30z" fill="#1B1D1D"/>
<path transform="translate(303,986)" d="m0 0h6l16 7 16 6-2 3h-4l7 3v2l4 2-2 1-26-10-5-2 1-2-2-1v-3l-9-4z" fill="#1F2223"/>
<path transform="translate(937,758)" d="m0 0 1 4-11 22-14 24-11 17-10 14-2-1 2-5 10-14 12-20 13-23 9-17z" fill="#191B1B"/>
<path transform="translate(275,970)" d="m0 0 19 9 12 6v2l-1 1 9 4-2 1v2l3 1-4 1-27-13v-3h2l-2-2 2-1-11-6z" fill="#1B1F20"/>
<path transform="translate(705,474)" d="m0 0 5 2 5 5 7 8 6 11 2 9 1 9v15l-2 18-3 1 1-12v-24l-3-15-7-14-7-8z" fill="#181919"/>
<path transform="translate(333,76)" d="m0 0 8 2 5 6 1 8-3 7-3 1-1-4v-9l-1-4h-18l-5-1v-2l9-3z" fill="#242829"/>
<path transform="translate(395,514)" d="m0 0 1 3-7 14-6 10-3 6-12 21h-2l-2 5-2 1 2-6 1-4h2l1-5 3-1 1-5 8-14 9-16 3-6z" fill="#222728"/>
<path transform="translate(340 1e3)" d="m0 0 9 2 15 5v2h-2v2l2 1-6 2-8-2-5-3-4-4-7-3 3-1z" fill="#1C1F20"/>
<path transform="translate(480,342)" d="m0 0 2 1-15 14-53 53-2-1 58-58 4-5z" fill="#121313"/>
<path transform="translate(778,135)" d="m0 0h12l10 5 7 8 3 7v10l-3 8-2-1 1-15-3-7-4-6-5-4-6-3-10-1z" fill="#161718"/>
<path transform="translate(602,1018)" d="m0 0 2 1-3 4v4l-14 2-3-1h-6l1-2h3v-4z" fill="#2B2F2F"/>
<path transform="translate(337,107)" d="m0 0 9 1 10 7 2 5h-8l-9-6-5-5z" fill="#222728"/>
<path transform="translate(505,47)" d="m0 0h10l8 3 5 5v7l-7-3-5-5-5-3-7-1-1-2z" fill="#222627"/>
<path transform="translate(769,138)" d="m0 0h13l-4 3-6 6h-3l-1 3h-4l-3 5-3 1 1-5 5-8z" fill="#121414"/>
<path transform="translate(470,350)" d="m0 0m-1 1m-1 1m-2 1 2 1-55 55-4 5-5 2 6-7z" fill="#1F2122"/>
<path transform="translate(377,489)" d="m0 0 2 1-2 2 9 11 7 5-3 1-2-1-1 2-8-5-5-6-1-6z" fill="#1D1F1F"/>
<path transform="translate(379,489)" d="m0 0 3 3 5 8 6 4h3l1-2h2l-1 5-2 2-1 7-5 1 2-6-4-1v-2h4l-9-7-5-7-2-2z" fill="#151717"/>
<path transform="translate(861,874)" d="m0 0v3l-11 12-5 6-8 7-12 12-7 5 2-4z" fill="#1D1F1F"/>
<path transform="translate(338,415)" d="m0 0h1l-1 10v12l3 7 3 2 12 1-4 2h-9l-5-4-3-5-1-5v-9l2-9z" fill="#171919"/>
<path transform="translate(441,425)" d="m0 0 2 1-2 6h-2l-2 6-9 19-9 17-3-1 2-6 3-4 3-7h2l2-6 8-15z" fill="#222728"/>
<path transform="translate(436,391)" d="m0 0m-1 1m-1 1m-1 1m-1 1m-1 1m-1 1m-1 1m-1 1m-1 1m-1 1 1 3-17 16-11 9-5 3 2-4 11-10 11-9z" fill="#171819"/>
<path transform="translate(379,1018)" d="m0 0 11 2 28 6 1 2h-8l-23-5-9-3z" fill="#1C1D1E"/>
<path transform="translate(253,123)" d="m0 0 2 1 3 12 5 7 7 4-3 1-5-2v-2l-4-2-4-7h-2l-3-7 2-4z" fill="#1E2020"/>
<path transform="translate(465,363)" d="m0 0m-1 1m-1 1 1 3-16 16h-2v2l-8 7-10 10v-3z" fill="#2D2E2E"/>
<path transform="translate(677,102)" d="m0 0 2 1-1 9v3l-5 6h-2v-2h2v-3l-7-1v-2l5-3 4-7z" fill="#171919"/>
<path transform="translate(961,695)" d="m0 0h1l-1 8-9 26-2 2-1-4 9-26z" fill="#131415"/>
<path transform="translate(397,332)" d="m0 0 2 1-29 29h-2l2-4 22-22z" fill="#151616"/>
<path transform="translate(732,134)" d="m0 0 1 2-6 13-1 4 5-3 3-4 2 1-5 8-2 1-7-4 1-4 7-13z" fill="#1A1C1C"/>
<path transform="translate(42,664)" d="m0 0h2l6 21 6 20v5l-2-2-7-22-4-16z" fill="#141616"/>
<path transform="translate(767,154)" d="m0 0h2l-2 10 3 8 2 1v2l6 2v2l-5-1-7-6-3-5 1-8z" fill="#1D1F1F"/>
<path transform="translate(698,130)" d="m0 0 5 1 2 5-2 4-7-1-2-2 1-4z" fill="#2C2E2E"/>
<path transform="translate(726,979)" d="m0 0m-1 1 2 2-27 13-5 2-3-1 5-3z" fill="#141616"/>
<path transform="translate(669,73)" d="m0 0 5 1 7 5 5 8 1 3v9l-2 1-3-13-6-9-7-4z" fill="#1E2020"/>
<path transform="translate(275,970)" d="m0 0 19 9 12 6v2l-6-2-10-4-2 1-4-3 2-1-11-6z" fill="#141616"/>
<path transform="translate(479,766)" d="m0 0 2 1-5 5-7 6-4 4h-2l-1 2 1-5 7-8z" fill="#25292A"/>
<path transform="translate(203,173)" d="m0 0 4 2 11 12v2l5 2-1 3-4-1-10-12z" fill="#202222"/>
<path transform="translate(540,763)" d="m0 0h17l-1 5-6-1-21-1v-1l11-1z" fill="#484C4C"/>
<path transform="translate(751,110)" d="m0 0 4 1-1 5-8 14-2-1 3-9z" fill="#232424"/>
<path transform="translate(364,372)" d="m0 0v3l-8 11-5 1-4 4-2-1 5-7 5-3z" fill="#1E2122"/>
<path transform="translate(303,986)" d="m0 0h6l9 4-1 2 1 3h-2l1 4-4-2 1-1-2-1v-3l-9-4z" fill="#252929"/>
<path transform="translate(890,838)" d="m0 0 1 3-11 14h-3l4-7z" fill="#212323"/>
<path transform="translate(525,287)" d="m0 0 10 1 12 4 7 4-1 2-14-6-14-3z" fill="#131515"/>
<path transform="translate(376,493)" d="m0 0 3 1 7 9 7 5-3 1-5-3-7-6-2-4z" fill="#222728"/>
<path transform="translate(759,168)" d="m0 0h2l6 9 10 7v2l-6-2-8-7-4-6z" fill="#1D1F1F"/>
<path transform="translate(338,110)" d="m0 0 5 1 3-1 3 3v2l3 3 3 2-7-1-10-7z" fill="#161717"/>
<path transform="translate(540,542)" d="m0 0 1 2-7 11-5 11-3 1 2-6 10-18z" fill="#141616"/>
<path transform="translate(489,68)" d="m0 0h1l2 11 2 5 5 2v2l-5-2-5-5-2-5v-5z" fill="#202222"/>
<path transform="translate(812,921)" d="m0 0m-1 1m-1 1 1 3-16 13-4 2 2-4 13-11z" fill="#1B1C1C"/>
<path transform="translate(902,821)" d="m0 0 1 3-11 15-2-1 2-5 8-10z" fill="#1A1C1C"/>
<path transform="translate(973,602)" d="m0 0h1v12l-2 18h-2v-9z" fill="#202222"/>
<path transform="translate(283,981)" d="m0 0 12 5 11 6-4 1-19-10z" fill="#131515"/>
<path transform="translate(981,583)" d="m0 0h1v14l-2 13h-1v-19l1-1z" fill="#252828"/>
<path transform="translate(445,1031)" d="m0 0h9l13 2v2l-18-1-4-1z" fill="#262828"/>
<path transform="translate(358,1012)" d="m0 0 19 5 2 1v2l-10-2-10-3z" fill="#2F3131"/>
<path transform="translate(395,1017)" d="m0 0 11 1 9 2-1 2-12-1-7-2z" fill="#181A1A"/>
<path transform="translate(972,650)" d="m0 0h1v8l-4 15-2 1 1-8z" fill="#131515"/>
<path transform="translate(436,391)" d="m0 0m-1 1m-1 1m-1 1m-1 1m-1 1m-1 1m-1 1m-1 1m-1 1m-1 1 1 3-14 13v-3z" fill="#1C1D1E"/>
<path transform="translate(419,1027)" d="m0 0 11 1 6 2 2 2-17-2-5-1z" fill="#232525"/>
<path transform="translate(970,633)" d="m0 0 1 4-3 17h-2l1-13 2-7z" fill="#1D1F1F"/>
<path transform="translate(729,533)" d="m0 0h1v13l-1 5-3 1 2-18z" fill="#1C1D1E"/>
<path transform="translate(420,1022)" d="m0 0 14 1 9 2v1l-18-1-5-1z" fill="#191A1B"/>
<path transform="translate(199,146)" d="m0 0m-2 1h2l-2 4-3 2 1 5 2 5h-2l-5-7 1-4z" fill="#171919"/>
<path transform="translate(531,570)" d="m0 0 1 4-5 12-2 1 1-10 2-1z" fill="#131414"/>
<path transform="translate(849,877)" d="m0 0h2l-2 4-7 5 2-4zm-8 9m-1 1m-1 1m-1 1m-1 1m-1 1m-1 1m-1 1m-2 1 2 1-4 4-2-1z" fill="#474848"/>
<path transform="translate(710,472)" d="m0 0 5 3 9 8 3 5-4-2-8-8-5-4z" fill="#343535"/>
<path transform="translate(801,162)" d="m0 0 1 4-7 10-5 2-1-2 6-4 5-9z" fill="#191A1A"/>
<path transform="translate(388,433)" d="m0 0m-1 1m-2 1h2l-1 3-17 9-3-1 17-9z" fill="#141616"/>
<path transform="translate(412,476)" d="m0 0 2 1v2l-2 1v3l-3 1-4 8-2-1 7-14z" fill="#131515"/>
<path transform="translate(708,988)" d="m0 0m-2 1h2v2l-13 6-3-1 5-3z" fill="#131414"/>
<path transform="translate(641,113)" d="m0 0 18 9h-7l-6-3-5-4z" fill="#191B1B"/>
<path transform="translate(238,947)" d="m0 0 4 2 1 3 3 3-5 1-3-3 2-1-4-4z" fill="#242829"/>
<path transform="translate(683,716)" d="m0 0 4 2-5 4-4 2v2l-2-1 4-6z" fill="#272C2D"/>
<path transform="translate(966,677)" d="m0 0h1l-1 9-2 5-2 1 1-7z" fill="#131515"/>
<path transform="translate(179,903)" d="m0 0 4 2 7 7h-3l-5-2v-2h-2v-2l-2-1z" fill="#222728"/>
<path transform="translate(953,719)" d="m0 0h2l-3 10-2 2-1-4 3-7z" fill="#1B1D1D"/>
<path transform="translate(622,1019)" d="m0 0h2v2l-10 3h-5l1-2z" fill="#1B1D1D"/>
<path transform="translate(526,586)" d="m0 0 1 2-3 12-2-3 1-7z" fill="#2B2D2D"/>
<path transform="translate(734,146)" d="m0 0 2 1-5 8-2 1-3-3 5-3z" fill="#131515"/>
<path transform="translate(767,955)" d="m0 0m-1 1v3l-11 7v-3z" fill="#131414"/>
<path transform="translate(569,721)" d="m0 0h14l3 3h-8l-9-2z" fill="#3F4343"/>
<path transform="translate(732,500)" d="m0 0h2l3 9v6l-2-1z" fill="#111313"/>
<path transform="translate(333,76)" d="m0 0 8 2 1 2-15-1 1-2z" fill="#191A1A"/>
<path transform="translate(949,730)" d="m0 0 1 4-3 8-2-2 1-5z" fill="#232525"/>
<path transform="translate(483,83)" d="m0 0 4 2 9 9-5-1-7-7z" fill="#121414"/>
<path transform="translate(540,552)" d="m0 0 1 3-5 10-2-2 5-10z" fill="#3D3E3E"/>
<path transform="translate(330,438)" d="m0 0 3 3 3 5 4 4-4-1-5-6z" fill="#1A1B1B"/>
<path transform="translate(827,899)" d="m0 0 2 1-9 10h-3z" fill="#171A1A"/>
</svg> -->

<svg width="200" height="200" xmlns="http://www.w3.org/2000/svg">
  <!-- Background Circle -->
  <circle cx="100" cy="100" r="100" fill="gray"/>

  <!-- Icon: Portfolio Briefcase -->
  <rect x="60" y="60" width="80" height="60" rx="10" ry="10" fill="black"/>
  <rect x="75" y="50" width="50" height="20" rx="5" ry="5" fill="black"/>
  <line x1="60" y1="80" x2="140" y2="80" stroke="white" stroke-width="5"/>

  <!-- Text: portfolio.io -->
  <text x="100" y="150" font-family="Arial, sans-serif" font-size="20" fill="white" text-anchor="middle">
    portfolio.io
  </text>
</svg>

