<!-- 


<svg width="200" height="200" xmlns="http://www.w3.org/2000/svg">
 
  <circle cx="100" cy="100" r="100" fill="#333"/>

  
  <rect x="60" y="60" width="80" height="60" rx="15" ry="15" fill="#222"/>
  <rect x="75" y="50" width="50" height="20" rx="10" ry="10" fill="#222"/>
  <line x1="60" y1="80" x2="140" y2="80" stroke="#fff" stroke-width="5" stroke-linecap="round"/>

  
  <line x1="60" y1="120" x2="140" y2="120" stroke="#444" stroke-width="5" stroke-linecap="round"/>

  
  <text x="100" y="160" font-family="Arial, sans-serif" font-size="24" fill="#fff" text-anchor="middle" font-weight="bold">
    portfolio.io
  </text>
</svg> -->



<svg width="220" height="80" xmlns="http://www.w3.org/2000/svg">
    <!-- Border -->
    <rect x="5" y="5" width="210" height="70" fill="none" stroke="#333" stroke-width="3" rx="10" ry="10"/>

    <!-- Icon -->
    <g fill="none" stroke="#333" stroke-width="3">
        <!-- Abstract Portfolio -->
        <path d="M30 25 h15 a5 5 0 0 1 5 5 v20 a5 5 0 0 1 -5 5 h-15 a5 5 0 0 1 -5 -5 v-20 a5 5 0 0 1 5 -5" fill="#333"/>
        <path d="M30 30 h15 a5 5 0 0 1 5 5 v5 h-15 v-5 a5 5 0 0 1 5 -5" fill="#fff"/>
        <path d="M40 35 L50 40 L40 45 L30 40 Z" fill="#fff"/>
    </g>

    <!-- Text -->
    <text x="60" y="50" font-family="Segoe UI, Arial, sans-serif" font-size="24" fill="#333" font-weight="bold">Portfolio.io</text>
</svg>



